<svg width="80" height="80" viewBox="0 0 80 80" fill="none" xmlns="http://www.w3.org/2000/svg">
  <!-- Lightbulb base -->
  <circle cx="40" cy="50" r="18" fill="#FFD700" opacity="0.3"/>
  <circle cx="40" cy="50" r="15" fill="#FFD700" opacity="0.5"/>
  
  <!-- Lightbulb -->
  <path d="M40 20 C35 20, 30 25, 30 35 C30 40, 32 44, 35 47 L35 52 L45 52 L45 47 C48 44, 50 40, 50 35 C50 25, 45 20, 40 20 Z" fill="#FFD700" stroke="#FFA500" stroke-width="2"/>
  
  <!-- Light rays -->
  <path d="M25 30 L20 25 M55 30 L60 25 M30 25 L25 20 M50 25 L55 20" stroke="#FFD700" stroke-width="2" stroke-linecap="round" opacity="0.6"/>
  
  <!-- Filament -->
  <path d="M40 35 L38 40 M40 35 L42 40" stroke="#333" stroke-width="1.5" stroke-linecap="round"/>
  
  <!-- Base connector -->
  <rect x="35" y="52" width="10" height="4" fill="#666" rx="1"/>
</svg>

